<svg aria-hidden="true" style="width:0;height:0;position:absolute;overflow:hidden" xmlns="http://www.w3.org/2000/svg"><defs><symbol id="icon-Heart" viewBox="0 0 32 32"><path fill="#ff6b08" style="fill:var(--color4,#ff6b08)" d="m16 30.144-2.24-2.217C5.44 20.64 0 15.726 0 9.71 0 4.793 3.84.995 8.8.995c2.72.002 5.44 1.269 7.2 3.326A9.64 9.64 0 0 1 23.195.998h.005c4.96 0 8.8 3.801 8.8 8.711 0 6.021-5.44 10.933-13.76 18.217L16 30.145z"/></symbol><symbol id="icon-search" viewBox="0 0 32 32"><path fill="none" stroke="#fff" style="stroke:var(--color2,#fff)" stroke-linejoin="round" stroke-linecap="round" stroke-width="2.667" d="M14.667 25.333c5.891 0 10.667-4.776 10.667-10.667S20.558 3.999 14.667 3.999v0C8.776 3.999 4 8.775 4 14.666s4.776 10.667 10.667 10.667v0zM28 28l-5.8-5.8"/></symbol><symbol id="icon-film" viewBox="0 0 32 32"><path fill="none" stroke="#fff" style="stroke:var(--color2,#fff)" stroke-linejoin="round" stroke-linecap="round" stroke-width="2.667" d="M26.427 2.667H5.574a2.907 2.907 0 0 0-2.907 2.907v20.853a2.907 2.907 0 0 0 2.907 2.907v0h20.853a2.907 2.907 0 0 0 2.907-2.907v0V5.574a2.907 2.907 0 0 0-2.907-2.907v0zm-17.094 0v26.667M22.667 2.667v26.667M2.667 16h26.667M2.667 9.333h6.667M2.667 22.667h6.667m13.333 0h6.667M22.667 9.333h6.667"/></symbol><symbol id="icon-close" viewBox="0 0 32 32"><path fill="none" stroke="#000" style="stroke:var(--color2,#000)" stroke-linejoin="round" stroke-linecap="round" stroke-width="2.667" d="m8.533 8.533 14.933 14.933m-14.933.001L23.466 8.534"/></symbol><symbol id="icon-tmdb_blue_square" viewBox="0 0 44 32"><path d="M12.248 16v-.007a4.24 4.24 0 0 1 4.239-4.239h-.024a4.24 4.24 0 0 1 4.239 4.239v.008a4.24 4.24 0 0 1-4.239 4.239h.024a4.24 4.24 0 0 1-4.239-4.239zm19.831-7.515h7.892a4.24 4.24 0 0 0 4.239-4.239v-.007A4.24 4.24 0 0 0 39.971 0h-7.892a4.24 4.24 0 0 0-4.239 4.239v.008a4.24 4.24 0 0 0 4.239 4.239zM4.973 31.993h15.328a4.24 4.24 0 0 0 4.239-4.239v-.007a4.24 4.24 0 0 0-4.239-4.239H4.973a4.24 4.24 0 0 0-4.239 4.239v.008a4.24 4.24 0 0 0 4.239 4.239zm20.13-11.754h1.499l3.502-8.485h-2.003l-2.135 5.565h-.024l-2.099-5.565h-2.135zm7.785 0h1.871v-8.485h-1.871zm5.325 0h5.985v-1.72h-4.114v-1.727h3.682v-1.727h-3.682v-1.583h3.898v-1.727h-5.757zM2.423 8.492h1.871V1.655h2.423V0H0v1.655h2.423zm6.932 0h1.871v-3.67h3.622v3.67h1.871V0h-1.871v3.166h-3.634V0H9.355zm9.895 0h5.997V6.765h-4.138V5.038h3.682V3.311h-3.682V1.728h3.898V.001H19.25zM.3 20.246h1.859v-6.513h.024l2.159 6.513h1.415l2.231-6.513h.024v6.513h1.871v-8.492H7.064l-1.967 5.541h-.024l-1.955-5.541H.287zM27.188 32H30.255a5.89 5.89 0 0 0 1.825-.288l-.042.012a4.68 4.68 0 0 0 1.532-.816l-.009.007a3.932 3.932 0 0 0 1.038-1.297l.01-.023c.26-.52.413-1.134.413-1.783v-.037.002l.002-.127c0-.672-.149-1.308-.416-1.879l.011.027a3.647 3.647 0 0 0-1.075-1.32l-.009-.006a4.41 4.41 0 0 0-1.584-.719l-.03-.006a7.849 7.849 0 0 0-1.935-.24h-2.81zm1.873-6.765H30.179c.393 0 .774.054 1.135.156l-.029-.007c.356.098.666.253.938.456l-.007-.005c.263.202.476.457.623.75l.006.012c.152.303.24.661.24 1.039v.047-.002l.001.07c0 .416-.089.81-.248 1.167l.007-.018a2.099 2.099 0 0 1-.635.797l-.005.004a2.583 2.583 0 0 1-.942.435l-.018.003c-.349.084-.75.132-1.162.132H29.05zM37.731 32h3.478a5.572 5.572 0 0 0 1.171-.127l-.037.007c.386-.079.73-.216 1.038-.404l-.014.008c.303-.183.552-.424.738-.711l.005-.009c.182-.299.289-.661.289-1.048l-.001-.078v.004-.017a2.18 2.18 0 0 0-.137-.765l.005.015a1.874 1.874 0 0 0-.378-.63l.001.002a2.026 2.026 0 0 0-.576-.439l-.011-.005a2.314 2.314 0 0 0-.75-.238l-.013-.002v-.024a2.234 2.234 0 0 0 1.06-.674l.002-.003c.25-.304.402-.698.402-1.127l-.002-.076v.004c.002-.029.002-.063.002-.098 0-.375-.103-.727-.283-1.027l.005.009a1.905 1.905 0 0 0-.709-.65l-.01-.005a3.018 3.018 0 0 0-.984-.31l-.016-.002a8.095 8.095 0 0 0-1.11-.077h-3.167zm1.871-6.909h1.271c.157.001.311.016.46.043l-.016-.002c.153.027.29.076.415.143l-.007-.004a.797.797 0 0 1 .293.268l.002.003a.767.767 0 0 1 .113.403l-.001.035v-.002.025a.868.868 0 0 1-.103.412l.002-.005a.81.81 0 0 1-.268.286l-.003.002c-.108.07-.234.124-.369.154l-.008.001c-.128.03-.275.048-.427.048h-1.377zm0 3.395h1.415c.174.001.345.014.511.038l-.02-.002c.179.025.341.071.492.137l-.012-.005a.966.966 0 0 1 .378.279l.001.002c.093.124.149.28.149.449l-.001.032v-.002l.001.033c0 .16-.042.309-.116.439l.002-.004a.963.963 0 0 1-.292.31l-.003.002a1.153 1.153 0 0 1-.393.167l-.008.001c-.132.03-.283.047-.438.048h-1.68z"/></symbol></defs></svg>