<svg aria-hidden="true" style="position: absolute; width: 0; height: 0; overflow: hidden;" version="1.1" xmlns="http://www.w3.org/2000/svg" xmlns:xlink="http://www.w3.org/1999/xlink">
<defs>
<symbol id="icon-Heart" viewBox="0 0 32 32">
<path fill="#ff6b08" style="fill: var(--color4, #ff6b08)" d="M16 30.144l-2.24-2.217c-8.32-7.287-13.76-12.201-13.76-18.217 0-4.917 3.84-8.715 8.8-8.715 2.72 0.002 5.44 1.269 7.2 3.326 1.761-2.019 4.329-3.296 7.195-3.323l0.005-0c4.96 0 8.8 3.801 8.8 8.711 0 6.021-5.44 10.933-13.76 18.217l-2.24 2.219z"></path>
</symbol>
<symbol id="icon-search" viewBox="0 0 32 32">
<path fill="none" stroke="#fff" style="stroke: var(--color2, #fff)" stroke-linejoin="round" stroke-linecap="round" stroke-miterlimit="4" stroke-width="2.6667" d="M14.667 25.333c5.891 0 10.667-4.776 10.667-10.667s-4.776-10.667-10.667-10.667v0c-5.891 0-10.667 4.776-10.667 10.667s4.776 10.667 10.667 10.667v0zM28 28l-5.8-5.8"></path>
</symbol>
<symbol id="icon-film" viewBox="0 0 32 32">
<path fill="none" stroke="#fff" style="stroke: var(--color2, #fff)" stroke-linejoin="round" stroke-linecap="round" stroke-miterlimit="4" stroke-width="2.6667" d="M26.427 2.667h-20.853c-1.605 0-2.907 1.301-2.907 2.907v0 20.853c0 1.605 1.301 2.907 2.907 2.907v0h20.853c1.605 0 2.907-1.301 2.907-2.907v0-20.853c0-1.605-1.301-2.907-2.907-2.907v0zM9.333 2.667v26.667M22.667 2.667v26.667M2.667 16h26.667M2.667 9.333h6.667M2.667 22.667h6.667M22.667 22.667h6.667M22.667 9.333h6.667"></path>
</symbol>
<symbol id="icon-close" viewBox="0 0 32 32">
<path fill="none" stroke="#000" style="stroke: var(--color2, #000)" stroke-linejoin="round" stroke-linecap="round" stroke-miterlimit="4" stroke-width="2.6667" d="M8.533 8.533l14.933 14.933M8.533 23.467l14.933-14.933"></path>
</symbol>
<symbol id="icon-tmdb_blue_square" viewBox="0 0 44 32">
<path d="M12.248 16v0c0-0.002 0-0.005 0-0.007 0-2.341 1.898-4.239 4.239-4.239 0 0 0 0 0 0h-0.024c0 0 0 0 0 0 2.341 0 4.239 1.898 4.239 4.239 0 0.003 0 0.005 0 0.008v-0c0 2.341-1.898 4.239-4.239 4.239v0h0.024c-2.341 0-4.239-1.898-4.239-4.239v0zM32.079 8.485h7.892c2.341 0 4.239-1.898 4.239-4.239v0c0-0.002 0-0.005 0-0.007 0-2.341-1.898-4.239-4.239-4.239 0 0 0 0 0 0h-7.892c0 0 0 0 0 0-2.341 0-4.239 1.898-4.239 4.239 0 0.003 0 0.005 0 0.008v-0c0 2.341 1.898 4.239 4.239 4.239v0zM4.973 31.993h15.328c2.341 0 4.239-1.898 4.239-4.239v0c0-0.002 0-0.005 0-0.007 0-2.341-1.898-4.239-4.239-4.239 0 0 0 0 0 0h-15.328c0 0 0 0 0 0-2.341 0-4.239 1.898-4.239 4.239 0 0.003 0 0.005 0 0.008v-0c0 2.341 1.898 4.239 4.239 4.239v0zM25.103 20.239h1.499l3.502-8.485h-2.003l-2.135 5.565h-0.024l-2.099-5.565h-2.135zM32.888 20.239h1.871v-8.485h-1.871zM38.213 20.239h5.985v-1.72h-4.114v-1.727h3.682v-1.727h-3.682v-1.583h3.898v-1.727h-5.757zM2.423 8.492h1.871v-6.837h2.423v-1.655h-6.717v1.655h2.423zM9.355 8.492h1.871v-3.67h3.622v3.67h1.871v-8.492h-1.871v3.166h-3.634v-3.166h-1.859zM19.25 8.492h5.997v-1.727h-4.138v-1.727h3.682v-1.727h-3.682v-1.583h3.898v-1.727h-5.757zM0.3 20.246h1.859v-6.513h0.024l2.159 6.513h1.415l2.231-6.513h0.024v6.513h1.871v-8.492h-2.819l-1.967 5.541h-0.024l-1.955-5.541h-2.831zM27.188 32h3.037c0.009 0 0.020 0 0.030 0 0.637 0 1.25-0.101 1.825-0.288l-0.042 0.012c0.584-0.186 1.091-0.461 1.532-0.816l-0.009 0.007c0.436-0.356 0.789-0.796 1.038-1.297l0.010-0.023c0.26-0.52 0.413-1.134 0.413-1.783 0-0.012-0-0.025-0-0.037v0.002c0.001-0.038 0.002-0.082 0.002-0.127 0-0.672-0.149-1.308-0.416-1.879l0.011 0.027c-0.259-0.534-0.626-0.978-1.075-1.32l-0.009-0.006c-0.458-0.332-0.999-0.583-1.584-0.719l-0.030-0.006c-0.581-0.151-1.248-0.239-1.935-0.24h-2.81zM29.061 25.235h1.103c0.004-0 0.010-0 0.015-0 0.393 0 0.774 0.054 1.135 0.156l-0.029-0.007c0.356 0.098 0.666 0.253 0.938 0.456l-0.007-0.005c0.263 0.202 0.476 0.457 0.623 0.75l0.006 0.012c0.152 0.303 0.24 0.661 0.24 1.039 0 0.016-0 0.032-0 0.047l0-0.002c0.001 0.021 0.001 0.046 0.001 0.070 0 0.416-0.089 0.81-0.248 1.167l0.007-0.018c-0.149 0.323-0.366 0.592-0.635 0.797l-0.005 0.004c-0.272 0.201-0.593 0.353-0.942 0.435l-0.018 0.003c-0.349 0.084-0.75 0.132-1.162 0.132-0.013 0-0.027-0-0.040-0h-0.993zM37.731 32h3.478c0.402-0.001 0.794-0.045 1.171-0.127l-0.037 0.007c0.386-0.079 0.73-0.216 1.038-0.404l-0.014 0.008c0.303-0.183 0.552-0.424 0.738-0.711l0.005-0.009c0.182-0.299 0.289-0.661 0.289-1.048 0-0.026-0.001-0.052-0.001-0.078l0 0.004c0-0.005 0-0.011 0-0.017 0-0.269-0.048-0.527-0.137-0.765l0.005 0.015c-0.088-0.243-0.216-0.452-0.378-0.63l0.001 0.002c-0.164-0.18-0.359-0.328-0.576-0.439l-0.011-0.005c-0.221-0.116-0.478-0.2-0.75-0.238l-0.013-0.002v-0.024c0.426-0.125 0.786-0.361 1.060-0.674l0.002-0.003c0.25-0.304 0.402-0.698 0.402-1.127 0-0.026-0.001-0.051-0.002-0.076l0 0.004c0.002-0.029 0.002-0.063 0.002-0.098 0-0.375-0.103-0.727-0.283-1.027l0.005 0.009c-0.18-0.277-0.423-0.499-0.709-0.65l-0.010-0.005c-0.29-0.152-0.627-0.261-0.984-0.31l-0.016-0.002c-0.333-0.048-0.718-0.076-1.11-0.077h-3.167zM39.602 25.091h1.271c0.157 0.001 0.311 0.016 0.46 0.043l-0.016-0.002c0.153 0.027 0.29 0.076 0.415 0.143l-0.007-0.004c0.121 0.065 0.221 0.157 0.293 0.268l0.002 0.003c0.071 0.115 0.113 0.254 0.113 0.403 0 0.012-0 0.024-0.001 0.035l0-0.002c0 0.007 0 0.016 0 0.025 0 0.149-0.037 0.289-0.103 0.412l0.002-0.005c-0.066 0.118-0.158 0.215-0.268 0.286l-0.003 0.002c-0.108 0.070-0.234 0.124-0.369 0.154l-0.008 0.001c-0.128 0.030-0.275 0.048-0.427 0.048h-1.377zM39.602 28.486h1.415c0.174 0.001 0.345 0.014 0.511 0.038l-0.020-0.002c0.179 0.025 0.341 0.071 0.492 0.137l-0.012-0.005c0.152 0.063 0.279 0.159 0.378 0.279l0.001 0.002c0.093 0.124 0.149 0.28 0.149 0.449 0 0.011-0 0.021-0.001 0.032l0-0.002c0 0.010 0.001 0.021 0.001 0.033 0 0.16-0.042 0.309-0.116 0.439l0.002-0.004c-0.075 0.126-0.174 0.231-0.292 0.31l-0.003 0.002c-0.114 0.077-0.249 0.135-0.393 0.167l-0.008 0.001c-0.132 0.030-0.283 0.047-0.438 0.048h-1.68z"></path>
</symbol>
</defs>
</svg>
